<?xml version="1.0" encoding="utf-8"?>
<!-- Generator: Adobe Illustrator 17.0.0, SVG Export Plug-In . SVG Version: 6.00 Build 0)  -->
<!DOCTYPE svg PUBLIC "-//W3C//DTD SVG 1.1//EN" "http://www.w3.org/Graphics/SVG/1.1/DTD/svg11.dtd">
<svg version="1.1" id="Calque_1" xmlns="http://www.w3.org/2000/svg" xmlns:xlink="http://www.w3.org/1999/xlink" x="0px" y="0px"
	 width="63.144px" height="62.993px" viewBox="0 0 63.144 62.993" enable-background="new 0 0 63.144 62.993" xml:space="preserve">
<circle fill="#FFFFFF" cx="31.307" cy="30.428" r="25.166"/>
<g>
	<g>
		<path fill="#2CADE3" d="M26.24,2.23c-0.102-0.057-0.207-0.106-0.311-0.161c-0.105,0.021-0.211,0.043-0.316,0.063L26.24,2.23z"/>
		<path fill="#2CADE3" d="M2.273,25.886c-0.02,0.107-0.034,0.216-0.053,0.325c0.056,0.1,0.104,0.202,0.161,0.3L2.273,25.886z"/>
		<path fill="#2CADE3" d="M60.854,37.089c0.021-0.111,0.035-0.223,0.056-0.334c-0.056-0.099-0.104-0.202-0.163-0.301L60.854,37.089z
			"/>
		<path fill="#2CADE3" d="M36.508,60.539c0.102,0.059,0.204,0.109,0.304,0.166c0.112-0.02,0.223-0.033,0.333-0.055L36.508,60.539z"
			/>
		<path fill="#2CADE3" d="M60.91,36.754c-0.02,0.111-0.034,0.224-0.056,0.334l-0.107-0.636
			C60.806,36.552,60.854,36.655,60.91,36.754c0.325-1.774,0.496-3.589,0.496-5.404c0-4.025-0.788-7.931-2.345-11.606
			c-1.502-3.551-3.65-6.74-6.391-9.478c-2.736-2.738-5.927-4.887-9.477-6.389c-3.675-1.555-7.58-2.343-11.604-2.343
			c-1.897,0-3.797,0.178-5.646,0.533c-0.004,0.001-0.009,0.001-0.014,0.002c0.104,0.055,0.209,0.104,0.311,0.161l-0.627-0.098
			c0.105-0.02,0.211-0.042,0.316-0.063C23.393,0.72,20.54,0,17.651,0C12.936,0,8.504,1.836,5.17,5.171
			C1.837,8.504,0,12.938,0,17.653c0,3.001,0.771,5.951,2.221,8.558c0.018-0.108,0.032-0.217,0.053-0.325l0.108,0.625
			c-0.057-0.098-0.105-0.2-0.161-0.3C1.927,27.9,1.771,29.626,1.771,31.35c0,4.025,0.788,7.93,2.345,11.606
			c1.5,3.552,3.65,6.74,6.388,9.478c2.739,2.737,5.927,4.89,9.48,6.388c3.675,1.559,7.581,2.347,11.606,2.347
			c1.752,0,3.508-0.159,5.222-0.463c-0.1-0.057-0.202-0.107-0.304-0.166l0.637,0.111c-0.11,0.021-0.221,0.035-0.333,0.055
			c2.641,1.494,5.631,2.288,8.684,2.288c4.715,0,9.146-1.833,12.48-5.169c3.335-3.332,5.17-7.766,5.17-12.481
			C63.144,42.331,62.369,39.372,60.91,36.754z M31.709,49.611c-10.594,0-15.332-5.208-15.332-9.111c0-2.002,1.478-3.405,3.515-3.405
			c4.533,0,3.359,6.509,11.817,6.509c4.329,0,6.721-2.351,6.721-4.757c0-1.447-0.714-3.051-3.565-3.753l-9.422-2.353
			c-7.588-1.902-8.965-6.004-8.965-9.86c0-8.007,7.538-11.012,14.617-11.012c6.521,0,14.208,3.603,14.208,8.407
			c0,2.058-1.782,3.255-3.818,3.255c-3.869,0-3.156-5.355-10.949-5.355c-3.867,0-6.01,1.751-6.01,4.257
			c0,2.501,3.055,3.299,5.706,3.904l6.975,1.548c7.639,1.701,9.575,6.161,9.575,10.363C46.781,44.753,41.788,49.611,31.709,49.611z"
			/>
	</g>
</g>
</svg>
