<svg version="1" xmlns="http://www.w3.org/2000/svg" width="1365.333" height="1365.333" viewBox="0 0 1024.000000 1024.000000"><path d="M765.8 280.5c-.2.1-4.3.5-9.3.9-9.5.7-11.6.9-23.5 2.7-35.4 5.2-70.2 17.6-91.9 32.7-22.8 15.9-34.5 32.4-40.8 57.3-1 4.3-1.2 27.2-.2 33.4 7.5 45.9 46.6 76.2 121.3 94.1 6 1.4 11.6 2.7 12.5 2.9.9.2 5 1 9.1 1.8 9.5 2 12.6 2.6 17 3.3 1.9.2 4.6.7 6 1 5.7 1 6.9 1.3 10.1 1.8 10 1.6 22.6 3.6 24.4 4 1.1.2 4.5.7 7.5 1.1 3 .4 6.2.9 7.1 1 .9.2 3.2.6 5 .9 3.6.6 21.3 4 29.1 5.6 24.7 5 46.5 13.6 56.2 22.1 6.3 5.6 10 13.4 9.4 20.2-.6 7.1-3.3 12.3-9.5 18.4-10.2 10-27 18.1-48.8 23.3-6.6 1.6-13.8 3.2-16 3.5-2.2.3-5.2.8-6.8 1-10.2 1.9-49.7 2.8-62 1.5-9.2-1-16.4-1.9-19.2-2.5-1.1-.3-3.3-.7-4.9-1-40.7-6.6-94.1-28-125.6-50.3-6.2-4.4-7.5-5.4-12.2-9.5-1.2-.9-2.1-1.7-2.2-1.7-.1 0 .2 86 .3 88 .4 5.4 48.1 26.5 71.6 31.6.6.1 3 .7 5.5 1.4s5.4 1.4 6.5 1.6c4.6 1 12.2 2.6 14.5 3 9.4 1.8 14.9 2.7 17.5 3 1.7.2 4.5.6 6.4.9 5.7 1 16.5 2.2 30.1 3.3 18.7 1.4 67.2.7 79.1-1.3 2.4-.4 8.6-1.2 16.4-2.1 2.2-.3 7.2-1.2 11-2 3.9-.9 8.1-1.8 9.5-2 1.4-.3 6.7-1.6 11.8-3 55.3-14.9 91.4-44.6 101.3-83.3 5.9-23.1 4.2-46.1-4.8-65.1-13-27.4-42.4-46.9-90.3-59.9-10.1-2.7-36.7-8.6-46-10.1-4.1-.7-8.4-1.4-9.5-1.6-1.1-.3-3.5-.7-5.4-1-1.8-.3-4.3-.8-5.5-1-1.1-.2-4.1-.7-6.6-.9-2.5-.3-5.2-.8-6-1-1.2-.4-21.4-3.6-30.5-5-7.4-1-12.7-2-26-4.6-8.2-1.7-16.1-3.2-17.5-3.5-6.2-1.2-29.7-8.7-35.5-11.3-12.1-5.5-21.4-13.3-25.2-21-.9-2-1.9-6.6-2.1-10.3-.5-7.9 1.7-13.3 8.2-19.8 9.8-10 35.4-19.5 60.1-22.4 2.8-.4 7-.9 9.5-1.2 2.5-.3 13.1-.7 23.5-.8 17.3-.2 24.4.1 40.5 1.9 5.2.6 23.7 3.8 29 5 1.4.3 3.6.8 5 1.1 1.4.3 6.5 1.6 11.4 3 26.5 7.5 48.5 16.8 70.4 29.8 5.7 3.3 11.2 6.5 12.3 7.1 1 .5 1.9 1.3 1.9 1.7 0 .5.7.8 1.5.8s1.5.5 1.5 1.2c0 .6.3.8.8.4.4-.4.7-18.8.7-40.7l.1-40-6.3-4c-18.9-11.9-50-23-79.8-28.3-1.6-.3-3.9-.8-5-1-1.1-.2-4.5-.7-7.5-1.1-3-.4-6.4-.9-7.5-1.1-1.1-.2-6.3-.9-11.5-1.4-5.2-.6-11.7-1.3-14.5-1.6-5.1-.6-56.1-1.5-56.7-.9zM57.8 291.7c-.2.4-.4 85.8-.4 189.8l.1 189 110-.1c96.1 0 128.6-.5 137.7-1.9 1.3-.2 4.9-.6 8.2-1 3.2-.4 6.8-.8 8-1 48-8 78.8-18.1 112.5-36.7 47.2-26.1 79.6-67.5 88.5-113.3.9-4.4 1.9-9.4 2.2-11 1.4-6.7 1.3-40-.2-49.4-2.8-18.3-7-32.1-14.2-47.1-21.3-44.1-65.2-78.8-125.1-98.9-13.2-4.4-40.4-11.5-48.6-12.7-2.7-.3-5.9-.8-7-1-6.2-1.2-12.2-2.1-20-2.9-3.3-.4-7.6-.9-9.5-1.2-5.4-1-241.8-1.5-242.2-.6zM295 360.3c2.5.4 6.8.9 9.5 1.3 10.9 1.3 16.2 2.1 27.5 4.6 5.2 1.1 10.6 2.2 12 2.4 6 1.2 30.2 9.9 38.9 14.1 20.3 9.6 39.3 25 49.4 40.1 8.8 13.1 13.9 27.3 16.3 45.2.5 3.4.4 22.9 0 26-.2 1.4-.7 4.5-1.1 6.9-1.2 8.3-6.9 24.2-10.8 30.6-16.5 26.7-39.9 44-75.9 56-24.1 8-46.4 12.1-76.3 14.1-12.4.8-151.4 1.2-151.6.4-.1-.3-.3-55.1-.3-121.8l-.2-121.3 79.1.4c43.4.2 81 .7 83.5 1z"/></svg>